<svg xmlns="http://www.w3.org/2000/svg" viewBox="0 0 64 64" role="img" aria-labelledby="title"><title>Playlist Letter Favicon</title><defs><linearGradient id="bg" x1="0" x2="1" y1="0" y2="1"><stop offset="0" stop-color="#fff8fb"/><stop offset="1" stop-color="#f4d5df"/></linearGradient><linearGradient id="seal" x1="0" x2="1" y1="0" y2="1"><stop offset="0" stop-color="#da557a"/><stop offset="1" stop-color="#a92d4e"/></linearGradient></defs><rect width="64" height="64" rx="16" fill="url(#bg)"/><path d="M12 20h40v24a6 6 0 0 1-6 6H18a6 6 0 0 1-6-6V20z" fill="#fffdfc" stroke="#e7bdc9" stroke-width="1.5"/><path d="M12 20l20 15L52 20" fill="none" stroke="#e7bdc9" stroke-width="1.5" stroke-linecap="round" stroke-linejoin="round"/><path d="M12 20L32 7l20 13" fill="#fff7fa" stroke="#e7bdc9" stroke-width="1.5" stroke-linejoin="round"/><circle cx="32" cy="27.5" r="7.5" fill="url(#seal)"/><path d="M32 31.2c-4-2.4-5.6-4.6-5.6-7a3.2 3.2 0 0 1 5.6-2 3.2 3.2 0 0 1 5.6 2c0 2.4-1.6 4.6-5.6 7z" fill="#fff6f9"/></svg>